HIERARCHY
ROOT Hips
{
 OFFSET 0.000000 0.000000 0.000000
 CHANNELS 6 Xposition Yposition Zposition Yrotation Xrotation Zrotation
 JOINT Chest
 {
  OFFSET 0.000000 9.585900 0.002600
  CHANNELS 3 Yrotation Xrotation Zrotation
  JOINT Chest2
  {
   OFFSET 0.000000 9.601200 -0.005300
   CHANNELS 3 Yrotation Xrotation Zrotation
   JOINT Chest3
   {
    OFFSET 0.000000 9.561800 0.000000
    CHANNELS 3 Yrotation Xrotation Zrotation
    JOINT Chest4
    {
     OFFSET 0.000000 9.552100 0.000000
     CHANNELS 3 Yrotation Xrotation Zrotation
     JOINT Neck
     {
      OFFSET 0.000000 14.453000 0.000000
      CHANNELS 3 Yrotation Xrotation Zrotation
      JOINT Head
      {
       OFFSET 0.000000 8.936500 -0.011300
       CHANNELS 3 Yrotation Xrotation Zrotation
       End Site
       {
        OFFSET 0.000000 17.073600 -0.006000
       }
      }
     }
     JOINT RightCollar
     {
      OFFSET -2.921100 9.558500 0.000000
      CHANNELS 3 Yrotation Xrotation Zrotation
      JOINT RightShoulder
      {
       OFFSET -13.519700 0.000000 0.000000
       CHANNELS 3 Yrotation Xrotation Zrotation
       JOINT RightElbow
       {
        OFFSET 0.000000 -29.696600 0.000000
        CHANNELS 3 Yrotation Xrotation Zrotation
        JOINT RightWrist
        {
         OFFSET 0.000000 -24.004700 0.000000
         CHANNELS 3 Yrotation Xrotation Zrotation
         End Site
         {
          OFFSET 0.000000 -17.728500 0.000000
         }
        }
       }
      }
     }
     JOINT LeftCollar
     {
      OFFSET 2.921100 9.558500 0.000000
      CHANNELS 3 Yrotation Xrotation Zrotation
      JOINT LeftShoulder
      {
       OFFSET 13.519700 0.000000 0.000000
       CHANNELS 3 Yrotation Xrotation Zrotation
       JOINT LeftElbow
       {
        OFFSET 0.000000 -29.696600 0.000000
        CHANNELS 3 Yrotation Xrotation Zrotation
        JOINT LeftWrist
        {
         OFFSET 0.000000 -24.004700 0.000000
         CHANNELS 3 Yrotation Xrotation Zrotation
         End Site
         {
          OFFSET 0.000000 -17.728500 0.000000
         }
        }
       }
      }
     }
    }
   }
  }
 }
 JOINT RightHip
 {
  OFFSET -7.771700 -0.012900 -0.001300
  CHANNELS 3 Yrotation Xrotation Zrotation
  JOINT RightKnee
  {
   OFFSET 0.000000 -40.869800 0.001200
   CHANNELS 3 Yrotation Xrotation Zrotation
   JOINT RightAnkle
   {
    OFFSET 0.000000 -39.717900 0.002100
    CHANNELS 3 Yrotation Xrotation Zrotation
    JOINT RightToe
    {
     OFFSET 0.000000 -4.965400 11.033500
     CHANNELS 3 Yrotation Xrotation Zrotation
     End Site
     {
      OFFSET 0.000000 -1.423100 5.872300
     }
    }
   }
  }
 }
 JOINT LeftHip
 {
  OFFSET 7.771700 -0.012900 -0.001300
  CHANNELS 3 Yrotation Xrotation Zrotation
  JOINT LeftKnee
  {
   OFFSET 0.000000 -40.869800 0.001200
   CHANNELS 3 Yrotation Xrotation Zrotation
   JOINT LeftAnkle
   {
    OFFSET 0.000000 -39.717900 0.002100
    CHANNELS 3 Yrotation Xrotation Zrotation
    JOINT LeftToe
    {
     OFFSET 0.000000 -4.965400 11.033500
     CHANNELS 3 Yrotation Xrotation Zrotation
     End Site
     {
      OFFSET 0.000000 -1.423100 5.872300
     }
    }
   }
  }
 }
}
MOTION
Frames: 15
Frame Time: 0.008333
-1.962172 50.126511 34.509973 173.299848 -32.862262 -7.250483 5.241643 18.759015 6.362167 0.554602 2.323323 0.563617 0.867752 3.819977 0.913646 4.271211 16.168730 4.430424 -0.891739 15.005845 1.126061 -2.111895 -7.892573 2.445927 2.178592 -2.468210 -7.135941 1.319006 -2.300588 -15.591064 144.456145 -80.259186 -145.800918 9.809262 7.760646 53.065862 -10.364960 -2.328135 -0.954994 11.892908 -9.810298 6.889102 -155.956248 -68.305743 142.342102 -9.036706 20.385467 -71.324154 0.908364 -48.384429 8.625854 -69.274650 81.513097 -57.569685 0.435767 -6.108300 -3.366978 -0.264754 1.063226 -0.139149 -15.550037 -51.566656 20.376942 -147.395936 88.148948 -154.621363 -0.092369 -7.549001 3.259822 -0.047338 -0.146848 0.035496
-1.942191 50.125760 34.504959 173.315265 -32.849884 -7.248463 5.323010 18.734809 6.430083 0.531652 2.318281 0.551757 0.868493 3.811080 0.911912 4.303679 16.142164 4.433708 -0.902221 15.000410 1.128951 -2.182931 -7.870544 2.465198 2.175513 -2.466642 -7.109423 1.247033 -2.359424 -15.678748 148.224255 -80.227827 -149.393790 9.840172 7.711585 54.066857 -10.441515 -2.314680 -0.960435 11.976261 -9.936112 6.841798 -158.205109 -68.598685 144.073942 -9.075451 20.378906 -72.142453 0.874078 -48.398690 8.621587 -69.323419 81.544856 -57.602540 0.437786 -6.118326 -3.381829 -0.272404 1.062038 -0.153331 -15.587561 -51.569860 20.445790 -146.192454 88.118203 -153.469124 -0.103429 -7.554581 3.282697 -0.048330 -0.150997 0.030071
-1.928093 50.122175 34.505205 173.366509 -32.797841 -7.235786 5.324347 18.680515 6.441700 0.532173 2.312753 0.550889 0.886902 3.798085 0.917257 4.314653 16.119309 4.432781 -0.931041 15.001953 1.129255 -2.178752 -7.892798 2.462955 2.183716 -2.459924 -7.089584 1.196888 -2.413063 -15.760666 151.967882 -80.175444 -152.975420 9.864413 7.645055 55.029857 -10.478493 -2.318783 -0.967760 12.014392 -10.033235 6.794371 -160.427156 -68.858923 145.787822 -9.091095 20.359182 -72.927155 0.860291 -48.448390 8.560029 -69.378974 81.572724 -57.629505 0.417129 -6.150225 -3.419795 -0.255259 1.082002 -0.141444 -15.635531 -51.618449 20.480838 -144.940975 88.100636 -152.273544 -0.117580 -7.547548 3.309944 -0.047914 -0.150710 0.026797
-1.913369 50.121108 34.504834 173.397085 -32.763690 -7.216582 5.336606 18.642227 6.456459 0.508180 2.312673 0.532032 0.913565 3.785934 0.933372 4.322287 16.103542 4.432757 -0.936328 14.996451 1.128535 -2.201366 -7.896180 2.462621 2.223494 -2.458647 -7.078590 1.167372 -2.464429 -15.835946 155.645132 -80.091461 -156.506564 9.883344 7.552469 55.949425 -10.490785 -2.336537 -0.976987 12.041722 -10.122324 6.751389 -162.644517 -69.104084 147.509040 -9.078755 20.332045 -73.656378 0.834076 -48.478966 8.516715 -69.374361 81.608446 -57.609351 0.411005 -6.169407 -3.453542 -0.252369 1.092014 -0.140812 -15.661075 -51.648080 20.504377 -143.835298 88.084603 -151.212390 -0.124505 -7.542144 3.325829 -0.044421 -0.153433 0.016210
-1.891459 50.121695 34.507777 173.380563 -32.732519 -7.219475 5.373786 18.603574 6.491911 0.543181 2.303424 0.557180 0.901519 3.782405 0.924636 4.329306 16.090330 4.434171 -0.971028 15.005773 1.121155 -2.202635 -7.903961 2.460355 2.269383 -2.455852 -7.072078 1.156355 -2.519894 -15.904956 159.192152 -79.970018 -159.916709 9.899902 7.431402 56.820832 -10.456472 -2.383674 -0.976477 12.011802 -10.177417 6.709930 -164.921610 -69.350402 149.304024 -9.053210 20.301881 -74.312496 0.788249 -48.513080 8.559536 -69.379964 81.626773 -57.620082 0.470823 -6.193309 -3.456032 -0.309485 1.116920 -0.162539 -15.707556 -51.668138 20.608366 -142.772783 88.057692 -150.185855 -0.122334 -7.541962 3.311702 -0.051215 -0.155855 0.042502
-1.875879 50.124430 34.508366 173.390067 -32.720283 -7.200985 5.380403 18.589797 6.492841 0.577001 2.293044 0.580520 0.889695 3.779619 0.915557 4.335485 16.079149 4.436397 -0.958891 15.002428 1.128272 -2.226150 -7.911339 2.460407 2.305876 -2.450865 -7.063768 1.164618 -2.583777 -15.971490 162.605609 -79.813488 -163.192177 9.930793 7.281835 57.642615 -10.452967 -2.404884 -0.979706 11.991495 -10.249485 6.679938 -167.314495 -69.595468 151.229254 -9.030143 20.281560 -74.882265 0.746739 -48.521872 8.565945 -69.365117 81.641154 -57.622333 0.481929 -6.199714 -3.473229 -0.324109 1.119981 -0.166753 -15.718672 -51.670528 20.641425 -141.571817 88.041122 -149.029864 -0.121740 -7.538902 3.320090 -0.050000 -0.156997 0.046178
-1.864439 50.129857 34.506359 173.434435 -32.732038 -7.181192 5.420179 18.583097 6.540493 0.510884 2.304934 0.533510 0.890125 3.777359 0.915489 4.368780 16.061608 4.451543 -0.945109 15.006467 1.138975 -2.249050 -7.906656 2.464532 2.330772 -2.445704 -7.051297 1.185901 -2.655008 -16.040612 165.882478 -79.622165 -166.327777 9.986341 7.112624 58.415099 -10.488045 -2.400418 -0.989483 11.997187 -10.338419 6.664477 -169.814795 -69.827429 153.270260 -9.001369 20.279233 -75.370050 0.740064 -48.502613 8.505476 -69.333766 81.668268 -57.543756 0.381330 -6.186140 -3.565478 -0.228824 1.092720 -0.122867 -15.715633 -51.649084 20.619984 -140.434455 88.031754 -147.935787 -0.122471 -7.534218 3.330306 -0.048380 -0.156839 0.034204
-1.852212 50.131644 34.513448 173.461405 -32.698329 -7.171851 5.430593 18.538606 6.559139 0.491552 2.309455 0.519646 0.890092 3.775379 0.915221 4.380297 16.053082 4.457603 -0.927805 15.015561 1.150953 -2.209234 -7.877734 2.493572 2.370965 -2.448073 -7.033169 1.209052 -2.728037 -16.115074 168.951033 -79.394750 -169.251435 10.055397 6.940155 59.137820 -10.504985 -2.400910 -0.994121 11.986898 -10.373359 6.655987 -172.340862 -69.991913 155.361798 -8.946644 20.291747 -75.792869 0.692537 -48.528690 8.493189 -69.339725 81.682760 -57.551530 0.411273 -6.226415 -3.586785 -0.245436 1.127803 -0.129419 -15.741342 -51.676065 20.647127 -139.510190 88.026526 -147.046808 -0.128197 -7.526643 3.339140 -0.051278 -0.151455 0.036934
-1.844450 50.135985 34.517362 173.485766 -32.697846 -7.143104 5.441447 18.525864 6.561691 0.484342 2.311430 0.515829 0.891262 3.772640 0.915527 4.393216 16.048188 4.464031 -0.927226 15.030783 1.160328 -2.197041 -7.843991 2.515502 2.353341 -2.440435 -7.031979 1.270115 -2.814516 -16.179252 171.752209 -79.138326 -171.904102 10.124044 6.769784 59.821494 -10.517133 -2.412470 -1.001036 11.981224 -10.467561 6.651940 -174.863096 -70.204658 157.417491 -8.860383 20.313949 -76.164028 0.667461 -48.522416 8.455170 -69.341231 81.693263 -57.557866 0.422828 -6.235676 -3.612185 -0.244026 1.131632 -0.129132 -15.713793 -51.672973 20.614333 -138.748839 88.031907 -146.315227 -0.137999 -7.520297 3.351148 -0.052625 -0.148875 0.034623
-1.845299 50.138757 34.522903 173.490517 -32.692964 -7.065580 5.432073 18.518812 6.500211 0.517167 2.304880 0.535714 0.891133 3.771322 0.915757 4.402711 16.039679 4.472190 -0.973550 15.050864 1.154362 -2.168297 -7.811598 2.537121 2.322465 -2.428812 -7.034231 1.328334 -2.898730 -16.244330 174.288704 -78.861885 -174.292336 10.181875 6.600150 60.484794 -10.530291 -2.421631 -1.003701 11.962734 -10.556575 6.648054 -177.379717 -70.396723 159.470996 -8.753188 20.336953 -76.498553 0.633879 -48.530193 8.391773 -69.328932 81.727179 -57.603171 0.467334 -6.219723 -3.609877 -0.290884 1.108455 -0.147743 -15.616440 -51.685226 20.500575 -138.164825 88.052881 -145.752428 -0.145224 -7.508295 3.361224 -0.052230 -0.148569 0.027976
-1.844755 50.142838 34.528593 173.506205 -32.702816 -7.015056 5.445351 18.507429 6.491553 0.546941 2.291073 0.559133 0.851278 3.791226 0.886237 4.409401 16.037528 4.476146 -0.955212 15.068681 1.170132 -2.180812 -7.779198 2.551263 2.400157 -2.431257 -6.992491 1.299095 -2.957026 -16.351528 176.626308 -78.570941 -176.477720 10.219599 6.443764 61.135787 -10.563635 -2.415041 -1.014996 11.973543 -10.639689 6.658082 -179.894414 -70.543420 161.533200 -8.639903 20.353465 -76.812371 0.631966 -48.521507 8.327777 -69.337913 81.743272 -57.634041 0.494347 -6.216572 -3.611723 -0.318994 1.099663 -0.157732 -15.545422 -51.679476 20.414088 -137.961462 88.075368 -145.568045 -0.169375 -7.495486 3.376955 -0.050267 -0.150135 0.020032
-1.839554 50.145784 34.539120 173.504776 -32.699621 -6.998626 5.486623 18.476174 6.528184 0.537089 2.296054 0.551118 0.855639 3.791028 0.889463 4.396581 16.043092 4.469199 -0.923207 15.082393 1.189992 -2.194151 -7.745443 2.564029 2.454960 -2.432121 -6.965657 1.300710 -3.025410 -16.438142 178.867811 -78.274197 -178.554330 10.230200 6.313448 61.768818 -10.568262 -2.417247 -1.012298 11.966570 -10.711517 6.662237 177.554093 -70.665944 163.631376 -8.530758 20.357060 -77.109401 0.601122 -48.525443 8.319490 -69.346423 81.730781 -57.632040 0.506086 -6.195940 -3.655787 -0.301406 1.083090 -0.147399 -15.508188 -51.684734 20.401163 -137.559604 88.087074 -145.176143 -0.188429 -7.487401 3.392727 -0.048488 -0.148600 0.012685
-1.839909 50.149720 34.547112 173.527164 -32.715754 -6.971111 5.485555 18.479845 6.520676 0.526639 2.301408 0.543257 0.895716 3.772007 0.918583 4.338520 16.068873 4.437784 -0.907838 15.086969 1.199116 -2.167728 -7.708969 2.583095 2.513838 -2.440951 -6.941543 1.319677 -3.098213 -16.515462 -178.872381 -77.975093 179.365873 10.220287 6.211213 62.377516 -10.548041 -2.430692 -0.996717 11.947682 -10.733337 6.654322 175.018044 -70.721075 165.719385 -8.427053 20.345691 -77.388725 0.605648 -48.508353 8.270272 -69.343908 81.731286 -57.633340 0.512091 -6.202481 -3.658504 -0.305761 1.086263 -0.149823 -15.433007 -51.673006 20.327193 -137.381030 88.111888 -145.007340 -0.217333 -7.487120 3.403904 -0.055528 -0.138647 0.019970
-1.840814 50.153872 34.555206 173.544366 -32.739417 -6.946954 5.491717 18.483785 6.525773 0.517861 2.312305 0.531462 0.895797 3.772050 0.919218 4.366374 16.056729 4.457636 -0.937781 15.105969 1.192600 -2.143285 -7.670805 2.599673 2.495791 -2.427578 -6.946613 1.371051 -3.179266 -16.582203 -176.523336 -77.663336 177.210254 10.200473 6.133512 62.955063 -10.556793 -2.441437 -0.975365 11.907086 -10.799899 6.644216 172.395956 -70.806352 167.895923 -8.322345 20.321396 -77.659071 0.609470 -48.484478 8.230666 -69.338658 81.730169 -57.632300 0.517095 -6.208035 -3.658467 -0.306707 1.091009 -0.155040 -15.299025 -51.669211 20.208145 -137.069641 88.128964 -144.659428 -0.241112 -7.480201 3.423559 -0.054304 -0.133339 0.019130
-1.842502 50.156803 34.565272 173.556511 -32.754463 -6.924226 5.502255 18.471875 6.538847 0.512539 2.320789 0.525843 0.898808 3.772885 0.921635 4.426441 16.036671 4.507758 -0.963908 15.142096 1.185459 -2.173101 -7.635042 2.599201 2.478296 -2.409049 -6.958330 1.384086 -3.237742 -16.677953 -174.134266 -77.327228 175.021074 10.166602 6.069562 63.482648 -10.624035 -2.430869 -1.003626 11.856408 -10.880262 6.655619 169.773827 -70.860357 170.093360 -8.206699 20.282018 -77.925845 0.564431 -48.464169 8.219821 -69.266207 81.735803 -57.587336 0.540990 -6.210179 -3.662095 -0.318383 1.099041 -0.169462 -15.211784 -51.667331 20.128150 -136.994401 88.151587 -144.570847 -0.268265 -7.467705 3.441105 -0.054753 -0.131757 0.017182
